<svg width="36" height="30" viewBox="0 0 36 30" fill="none" xmlns="http://www.w3.org/2000/svg">
<path d="M11.65 25.1465L11.6503 25.1458L19.6501 3.14605C19.7623 2.83741 19.9341 2.55388 20.1558 2.31166C20.3775 2.06944 20.6448 1.87328 20.9424 1.73437C21.2399 1.59546 21.5619 1.51653 21.89 1.50209C22.2179 1.48766 22.5455 1.53795 22.854 1.6501L11.65 25.1465ZM11.65 25.1465C11.424 25.7695 11.4546 26.4567 11.7351 27.0571M11.65 25.1465L11.7351 27.0571M11.7351 27.0571C12.0152 27.6568 12.5217 28.1209 13.1435 28.3477M11.7351 27.0571L13.1435 28.3477M13.1435 28.3477C13.4182 28.4488 13.7087 28.5004 14.0014 28.5M13.1435 28.3477L22.8543 1.65021C23.1628 1.76234 23.4462 1.93413 23.6884 2.15577C23.9306 2.3775 24.1268 2.64477 24.2657 2.94231C24.4046 3.23986 24.4835 3.56186 24.498 3.88992C24.5124 4.21798 24.4621 4.54567 24.3498 4.85427L16.3499 26.8542L15.41 26.5125M14.0014 28.5C14.0009 28.5 14.0004 28.5 13.9999 28.5L14 27.5L14.0014 28.5ZM14.0014 28.5C14.5141 28.4998 15.0144 28.3419 15.4345 28.0477C15.8549 27.7533 16.1745 27.3366 16.3498 26.8542L15.41 26.5125M15.41 26.5125L23.41 4.5125L15.41 26.5125ZM11.6002 11.9208L11.6002 11.9208L11.6062 11.9157C12.1096 11.4895 12.4242 10.8817 12.4814 10.2246C12.5386 9.5675 12.3339 8.91441 11.9117 8.40762C11.4896 7.90083 10.8843 7.58139 10.2277 7.51891C9.57104 7.45643 8.91634 7.65597 8.40619 8.07405L8.40617 8.07402L8.39986 8.07928L2.4 13.0792C2.11835 13.3138 1.89175 13.6075 1.73624 13.9394C1.58073 14.2714 1.50012 14.6334 1.50012 15C1.50012 15.3666 1.58073 15.7286 1.73624 16.0606C1.89175 16.3925 2.11835 16.6862 2.4 16.9208L8.39719 21.9185C8.64829 22.1303 8.93869 22.2906 9.2518 22.3902C9.56628 22.4901 9.89744 22.5269 10.2262 22.4982C10.5549 22.4696 10.8747 22.3762 11.1672 22.2233C11.4597 22.0705 11.719 21.8613 11.9302 21.6077C12.1414 21.3542 12.3003 21.0613 12.3977 20.7461C12.4952 20.4308 12.5293 20.0994 12.498 19.7709C12.4668 19.4424 12.3708 19.1233 12.2156 18.8321C12.0611 18.5422 11.8511 18.2856 11.5974 18.0769L7.9047 15L11.6002 11.9208ZM33.6001 13.0792L27.6028 8.0814C27.3517 7.86961 27.0613 7.70936 26.7483 7.60983C26.4338 7.50985 26.1027 7.47312 25.7739 7.50175C25.4452 7.53039 25.1254 7.62382 24.8329 7.77666C24.5404 7.9295 24.2811 8.13873 24.0699 8.39227C23.8587 8.64582 23.6998 8.93867 23.6024 9.25394C23.5049 9.5692 23.4708 9.90064 23.5021 10.2291C23.5333 10.5576 23.6293 10.8767 23.7845 11.1679C23.9389 11.4578 24.1489 11.7143 24.4025 11.9229L28.0954 15L24.4025 18.0771C24.1489 18.2857 23.9389 18.5422 23.7845 18.8321C23.6293 19.1233 23.5333 19.4424 23.5021 19.7709C23.4708 20.0994 23.5049 20.4308 23.6024 20.7461C23.6998 21.0613 23.8587 21.3542 24.0699 21.6077C24.2811 21.8613 24.5404 22.0705 24.8329 22.2233C25.1254 22.3762 25.4452 22.4696 25.7739 22.4982C26.1027 22.5269 26.4338 22.4901 26.7483 22.3902C27.0614 22.2906 27.3518 22.1303 27.6029 21.9185L33.6001 16.9208C33.6001 16.9208 33.6002 16.9208 33.6002 16.9207C33.8818 16.6861 34.1084 16.3925 34.2639 16.0606C34.4194 15.7286 34.5 15.3666 34.5 15C34.5 14.6334 34.4194 14.2714 34.2639 13.9394C34.1084 13.6075 33.8818 13.3139 33.6002 13.0793C33.6002 13.0792 33.6001 13.0792 33.6001 13.0792Z" fill="#82BC4F" stroke="black" stroke-width="2"/>
</svg>
